<svg width="17px" height="20px" viewBox="0 0 17 20" version="1.1" xmlns="http://www.w3.org/2000/svg" xmlns:xlink="http://www.w3.org/1999/xlink">
    <!-- Generator: Sketch 43.2 (39069) - http://www.bohemiancoding.com/sketch -->
    <title>001-bookmark-white</title>
    <desc>Created with Sketch.</desc>
    <defs></defs>
    <g id="Symbols" stroke="none" stroke-width="1" fill="none" fill-rule="evenodd">
        <g id="icon:-bookmark" fill-rule="nonzero" fill="#000000">
            <g id="001-bookmark-white">
                <path d="M16.6296923,0.659330874 C16.4582451,0.413080328 16.2273708,0.232998361 15.9375773,0.118761749 C15.7530164,0.0397565574 15.5595899,0.000184699454 15.3573902,0.000184699454 L15.3573902,0 L1.54122459,0 C1.33911721,0 1.14587541,0.0395718579 0.961268306,0.118577049 C0.671290164,0.232721311 0.440508197,0.413034153 0.269153279,0.659146175 C0.0978445355,0.905258197 0.0120516393,1.17759754 0.0120516393,1.47648743 L0.0120516393,18.4697145 C0.0120516393,18.7686967 0.0978445355,19.0409437 0.269153279,19.2872866 C0.440508197,19.5333525 0.671290164,19.7136191 0.961268306,19.8277172 C1.14569071,19.9067224 1.33911721,19.9462019 1.54122459,19.9462019 C1.95444344,19.9462019 2.31899399,19.8011205 2.6354765,19.511327 L8.44935355,13.9213057 L14.2632306,19.5114656 C14.5708937,19.7922549 14.935629,19.9329036 15.357344,19.9329036 C15.5771363,19.9329036 15.7705167,19.8979954 15.9375311,19.827671 C16.2273246,19.713573 16.4581989,19.5333063 16.6296462,19.2869172 C16.8009549,19.0408975 16.8865631,18.7686044 16.8865631,18.4696683 L16.8865631,1.47667213 C16.8866093,1.17778224 16.8008164,0.905442896 16.6296923,0.659330874 Z M15.1991951,18.0607899 L9.62270301,12.7084306 L8.44935355,11.5880437 L7.27609645,12.7084306 L1.69965055,18.0607899 L1.69965055,1.68764508 L15.1991951,1.68764508 L15.1991951,18.0607899 L15.1991951,18.0607899 Z" id="Shape"></path>
            </g>
        </g>
    </g>
</svg>