<svg width="43px" height="32px" viewBox="0 0 43 32" version="1.1" xmlns="http://www.w3.org/2000/svg" xmlns:xlink="http://www.w3.org/1999/xlink">
    <!-- Generator: Sketch 43.2 (39069) - http://www.bohemiancoding.com/sketch -->
    <title>014-list</title>
    <desc>Created with Sketch.</desc>
    <defs></defs>
    <g id="Page-1" stroke="none" stroke-width="1" fill="none" fill-rule="evenodd">
        <g id="Playground" transform="translate(-26.000000, -41.000000)" fill-rule="nonzero" fill="#000000">
            <g id="014-list" transform="translate(26.000000, 41.000000)">
                <path d="M1.77550472,5.52953168 L41.1287565,5.52953168 C42.100089,5.52953168 42.8857256,4.29538534 42.8857256,2.76953169 C42.8857256,1.24367804 42.100089,0.00953169799 41.1287565,0.00953169799 L1.77550472,0.00953169799 C0.804172187,0.00953169799 0.0185355822,1.24367804 0.0185355822,2.76953169 C0.0185355822,4.29538534 0.804172187,5.52953168 1.77550472,5.52953168 Z" id="Shape"></path>
                <path d="M1.77550472,18.5295317 L41.1287565,18.5295317 C42.100089,18.5295317 42.8857256,17.2953853 42.8857256,15.7695317 C42.8857256,14.243678 42.100089,13.0095317 41.1287565,13.0095317 L1.77550472,13.0095317 C0.804172187,13.0095317 0.0185355822,14.243678 0.0185355822,15.7695317 C0.0185355822,17.2953853 0.804172187,18.5295317 1.77550472,18.5295317 Z" id="Shape"></path>
                <path d="M1.77550472,31.5295317 L41.1287565,31.5295317 C42.100089,31.5295317 42.8857256,30.2953853 42.8857256,28.7695317 C42.8857256,27.243678 42.100089,26.0095317 41.1287565,26.0095317 L1.77550472,26.0095317 C0.804172187,26.0095317 0.0185355822,27.243678 0.0185355822,28.7695317 C0.0185355822,30.2953853 0.804172187,31.5295317 1.77550472,31.5295317 Z" id="Shape"></path>
            </g>
        </g>
    </g>
</svg>