<svg width="229px" height="185px" viewBox="0 0 229 185" version="1.1" xmlns="http://www.w3.org/2000/svg" xmlns:xlink="http://www.w3.org/1999/xlink">
    <!-- Generator: Sketch 43.2 (39069) - http://www.bohemiancoding.com/sketch -->
    <title>001-avatar</title>
    <desc>Created with Sketch.</desc>
    <defs></defs>
    <g id="Page-1" stroke="none" stroke-width="1" fill="none" fill-rule="evenodd">
        <g id="Designs" transform="translate(-2195.000000, -889.000000)" fill-rule="nonzero" fill="#000000">
            <g id="Group" transform="translate(2195.000000, 889.000000)">
                <g id="001-avatar">
                    <path d="M68.8912409,109.810766 L69.4323601,109.810766 L69.6352798,109.810766 L69.9734793,109.810766 C79.8827251,109.642029 87.8980535,106.166046 93.816545,99.5178054 C106.837226,84.8714286 104.672749,59.763354 104.43601,57.3672878 C103.590511,39.3799172 95.0678832,30.7743271 88.0333333,26.7583851 C82.7912409,23.7548654 76.6698297,22.1349896 69.8381995,22 L69.6014599,22 L69.46618,22 L69.2632603,22 C65.5092457,22 58.1364964,22.6074534 51.0681265,26.6233954 C43.9659367,30.6393375 35.3080292,39.2449275 34.4625304,57.3672878 C34.2257908,59.763354 32.0613139,84.8714286 45.0819951,99.5178054 C50.9666667,106.166046 58.9819951,109.642029 68.8912409,109.810766 Z M43.4924574,58.2109731 C43.4924574,58.1097308 43.5262774,58.0084886 43.5262774,57.9409938 C44.6423358,33.7440994 61.856691,31.1455487 69.2294404,31.1455487 L69.3647202,31.1455487 L69.6352798,31.1455487 C78.7666667,31.3480331 94.2900243,35.0602484 95.3384428,57.9409938 C95.3384428,58.042236 95.3384428,58.1434783 95.3722628,58.2109731 C95.4060827,58.447205 97.7734793,81.3954451 87.0187348,93.4770186 C82.7574209,98.2691511 77.0756691,100.63147 69.6014599,100.698965 L69.4323601,100.698965 L69.4323601,100.698965 L69.2632603,100.698965 C61.822871,100.63147 56.1072993,98.2691511 51.8798054,93.4770186 C41.1588808,81.46294 43.4586375,58.4134576 43.4924574,58.2109731 Z" id="Shape"></path>
                    <path d="M68.8912409,109.810766 L69.4323601,109.810766 L69.6352798,109.810766 L69.9734793,109.810766 C79.8827251,109.642029 87.8980535,106.166046 93.816545,99.5178054 C106.837226,84.8714286 104.672749,59.763354 104.43601,57.3672878 C103.590511,39.3799172 95.0678832,30.7743271 88.0333333,26.7583851 C82.7912409,23.7548654 76.6698297,22.1349896 69.8381995,22 L69.6014599,22 L69.46618,22 L69.2632603,22 C65.5092457,22 58.1364964,22.6074534 51.0681265,26.6233954 C43.9659367,30.6393375 35.3080292,39.2449275 34.4625304,57.3672878 C34.2257908,59.763354 32.0613139,84.8714286 45.0819951,99.5178054 C50.9666667,106.166046 58.9819951,109.642029 68.8912409,109.810766 Z M43.4924574,58.2109731 C43.4924574,58.1097308 43.5262774,58.0084886 43.5262774,57.9409938 C44.6423358,33.7440994 61.856691,31.1455487 69.2294404,31.1455487 L69.3647202,31.1455487 L69.6352798,31.1455487 C78.7666667,31.3480331 94.2900243,35.0602484 95.3384428,57.9409938 C95.3384428,58.042236 95.3384428,58.1434783 95.3722628,58.2109731 C95.4060827,58.447205 97.7734793,81.3954451 87.0187348,93.4770186 C82.7574209,98.2691511 77.0756691,100.63147 69.6014599,100.698965 L69.4323601,100.698965 L69.4323601,100.698965 L69.2632603,100.698965 C61.822871,100.63147 56.1072993,98.2691511 51.8798054,93.4770186 C41.1588808,81.46294 43.4586375,58.4134576 43.4924574,58.2109731 Z" id="Shape"></path>
                    <path d="M139.054852,34.3567721 L143.526162,34.9493318 C143.167976,33.0018474 142.884509,31.6882143 142.841637,31.2543025 C140.187077,13.298237 138.882126,8.77432712 131.847576,4.75838509 C126.605483,1.75486542 120.484072,0.134989648 113.652442,0 L113.415702,0 L113.077503,0 C109.323488,0 101.950739,0.607453416 94.8823691,4.62339545 C89.0618918,7.91459157 82.1965416,14.2883512 79.4427794,26.4566908 L88.5092291,27.6582208 C92.7094514,11.1204164 106.616319,9.14554865 113.043683,9.14554865 L113.449522,9.14554865 C122.36595,9.3432665 137.376948,12.8874173 139.054852,34.3567721 Z" id="Shape"></path>
                    <path d="M138.015844,56.0624311 L147.263758,56.0624311 C145.883548,63.4427977 143.093601,71.4329744 137.628663,77.5802365 C131.710172,84.2284767 123.694843,87.7044601 113.785597,87.8731972 L113.244478,87.8731972 C113.041558,87.8731972 122.612605,88.0419342 112.703359,87.8731972 L88.8941132,77.5802365 C83.4291753,71.4329744 80.6392286,63.4427977 79.2590182,56.0624297 L88.5074256,56.0624311 C89.7143016,61.6012092 91.8801055,67.2678517 95.6919234,71.5394498 C99.9194173,76.3315823 105.634989,78.6939011 113.075378,78.7613959 L113.244478,78.7613959 L113.413578,78.7613959 C120.887787,78.6939011 126.569539,76.3315823 130.830853,71.5394498 C134.649708,67.2494562 136.814048,61.58933 138.015844,56.0624311 Z M124.425321,11.355207 C127.289527,8.45478352 130.327773,6.61748214 132.912548,5.45941877 C132.553883,5.23463506 132.197801,5.02196828 131.845451,4.82081621 C126.603359,1.81729654 120.481948,0.197420766 113.650318,0.0624311182 L113.413578,0.0624311182 L113.075378,0.0624311182 C109.321364,0.0624311182 101.948614,0.669884534 94.8802446,4.68582656 C93.9062273,5.23658583 92.9029497,5.87366842 91.8945761,6.60978349 C94.0196698,8.81384809 96.5227631,11.0565319 99.164445,12.6952855 C104.190534,9.75638838 109.654552,9.20797977 113.041558,9.20797977 L113.176838,9.20797977 L113.447398,9.20797977 C116.625642,9.27845594 120.578234,9.77411415 124.425321,11.355207 Z" id="Shape" transform="translate(113.261388, 44.005311) rotate(-180.000000) translate(-113.261388, -44.005311) "></path>
                    <path d="M138.93236,151.455072 L138.93236,151.35383 C138.93236,151.083851 138.89854,150.813872 138.89854,150.510145 C138.69562,143.828157 138.255961,128.203106 123.578102,123.208489 C123.476642,123.174741 123.341363,123.140994 123.239903,123.107246 C107.987105,119.226294 95.3046229,110.451967 95.1693431,110.350725 C93.106326,108.899586 90.2654501,109.405797 88.8111922,111.464389 C87.3569343,113.522981 87.8642336,116.357764 89.9272506,117.808903 C90.5021898,118.213872 103.96253,127.561905 120.804866,131.881573 C128.684915,134.682609 129.564234,143.085714 129.800973,150.780124 C129.800973,151.083851 129.800973,151.35383 129.834793,151.62381 C129.868613,154.661077 129.665693,159.351967 129.124574,162.05176 C123.645742,165.156522 102.170073,175.888199 69.5,175.888199 C36.9652068,175.888199 15.3542579,165.122774 9.84160584,162.018012 C9.30048662,159.318219 9.06374696,154.627329 9.13138686,151.590062 C9.13138686,151.320083 9.16520681,151.050104 9.16520681,150.746377 C9.40194647,143.051967 10.2812652,134.648861 18.1613139,131.847826 C35.0036496,127.528157 48.4639903,118.146377 49.0389294,117.775155 C51.1019465,116.324017 51.6092457,113.489234 50.1549878,111.430642 C48.7007299,109.37205 45.859854,108.865839 43.796837,110.316977 C43.6615572,110.418219 31.0467153,119.192547 15.7262774,123.073499 C15.5909976,123.107246 15.4895377,123.140994 15.3880779,123.174741 C0.710218978,128.203106 0.270559611,143.828157 0.0676399027,150.476398 C0.0676399027,150.780124 0.0676399027,151.050104 0.0338199513,151.320083 L0.0338199513,151.421325 C1.0859369e-15,153.17619 -0.0338199513,162.186749 1.75863747,166.708903 C2.09683698,167.586335 2.70559611,168.328778 3.51727494,168.83499 C4.53187348,169.509938 28.8484185,184.966253 69.53382,184.966253 C110.219221,184.966253 134.535766,169.47619 135.550365,168.83499 C136.328224,168.328778 136.970803,167.586335 137.309002,166.708903 C139,162.220497 138.96618,153.209938 138.93236,151.455072 Z" id="Shape"></path>
                    <path d="M158.891241,109.810766 L159.43236,109.810766 L159.63528,109.810766 L159.973479,109.810766 C169.882725,109.642029 177.898054,106.166046 183.816545,99.5178054 C196.837226,84.8714286 194.672749,59.763354 194.43601,57.3672878 C193.590511,39.3799172 185.067883,30.7743271 178.033333,26.7583851 C172.791241,23.7548654 166.66983,22.1349896 159.8382,22 L159.60146,22 L159.46618,22 L159.26326,22 C155.509246,22 148.136496,22.6074534 141.068127,26.6233954 C133.965937,30.6393375 125.308029,39.2449275 124.46253,57.3672878 C124.225791,59.763354 122.061314,84.8714286 135.081995,99.5178054 C140.966667,106.166046 148.981995,109.642029 158.891241,109.810766 Z M133.492457,58.2109731 C133.492457,58.1097308 133.526277,58.0084886 133.526277,57.9409938 C134.642336,33.7440994 151.856691,31.1455487 159.22944,31.1455487 L159.36472,31.1455487 L159.63528,31.1455487 C168.766667,31.3480331 184.290024,35.0602484 185.338443,57.9409938 C185.338443,58.042236 185.338443,58.1434783 185.372263,58.2109731 C185.406083,58.447205 187.773479,81.3954451 177.018735,93.4770186 C172.757421,98.2691511 167.075669,100.63147 159.60146,100.698965 L159.43236,100.698965 L159.43236,100.698965 L159.26326,100.698965 C151.822871,100.63147 146.107299,98.2691511 141.879805,93.4770186 C131.158881,81.46294 133.458637,58.4134576 133.492457,58.2109731 Z" id="Shape"></path>
                    <path d="M228.93236,151.455072 C228.93236,151.083851 228.89854,150.813872 228.89854,150.510145 C228.69562,143.828157 228.255961,128.203106 213.578102,123.208489 C213.476642,123.174741 213.341363,123.140994 213.239903,123.107246 C197.987105,119.226294 185.304623,110.451967 185.169343,110.350725 C183.106326,108.899586 180.26545,109.405797 178.811192,111.464389 C177.356934,113.522981 177.864234,116.357764 179.927251,117.808903 C180.50219,118.213872 193.96253,127.561905 210.804866,131.881573 C218.684915,134.682609 219.564234,143.085714 219.800973,150.780124 C219.800973,151.083851 219.800973,151.35383 219.834793,151.62381 C219.868613,154.661077 219.665693,159.351967 219.124574,162.05176 C213.645742,165.156522 192.170073,175.888199 159.5,175.888199 C151.843127,175.888199 132.550959,174.300768 122.939205,172.480674 C106.967937,169.456336 108.490198,174.590639 108.370941,175.888199 C108.275885,176.922435 111.306419,180.504526 124.552861,182.862475 C137.799302,185.220423 149.364097,184.966253 159.53382,184.966253 C200.219221,184.966253 224.535766,169.47619 225.550365,168.83499 C226.328224,168.328778 226.970803,167.586335 227.309002,166.708903 C229,162.220497 228.96618,153.209938 228.93236,151.455072 Z" id="Shape"></path>
                    <path d="M119.060473,126.077049 C131.032102,121.061524 138.46399,118.146377 139.038929,117.775155 C141.101946,116.324017 141.609246,113.489234 140.154988,111.430642 C138.70073,109.37205 135.859854,108.865839 133.796837,110.316977 C133.661557,110.418219 125.955337,114.902093 113.658534,121.061524 C100.703407,127.550708 111.180425,128.878084 119.060473,126.077049 Z" id="Shape"></path>
                </g>
            </g>
        </g>
    </g>
</svg>