<svg width="30px" height="30px" viewBox="0 0 30 30" version="1.1" xmlns="http://www.w3.org/2000/svg" xmlns:xlink="http://www.w3.org/1999/xlink">
    <!-- Generator: Sketch 43.2 (39069) - http://www.bohemiancoding.com/sketch -->
    <title>023-clock</title>
    <desc>Created with Sketch.</desc>
    <defs></defs>
    <g id="Symbols" stroke="none" stroke-width="1" fill="none" fill-rule="evenodd">
        <g id="Stop:-Short" transform="translate(-5.000000, -4.000000)">
            <g id="Group-2">
                <g id="023-clock" transform="translate(5.000000, 4.000000)" fill-rule="nonzero" fill="#000000">
                    <path d="M15,0 C6.71582031,0 0,6.71582031 0,15 C0,23.2841797 6.71582031,30 15,30 C23.2841797,30 30,23.2841797 30,15 C29.9907226,6.71972656 23.2802734,0.009277375 15,0 Z M15,29 C7.26806638,29 1,22.7319336 1,15 C1,7.26806638 7.26806638,1 15,1 C22.7319336,1 29,7.26806638 29,15 C28.9912109,22.7282715 22.7282715,28.9912109 15,29 Z" id="Shape"></path>
                    <path d="M15,3 C8.37255863,3 3,8.37255863 3,15 C3,21.6274414 8.37255863,27 15,27 C21.6274414,27 27,21.6274414 27,15 C26.9921875,8.37573244 21.6242676,3.0078125 15,3 Z M15.5,25.9875488 L15.5,24.5 C15.5,24.2238769 15.2761231,24 15,24 C14.7238769,24 14.5,24.2238769 14.5,24.5 L14.5,25.9875488 C8.82128906,25.7224121 4.27758788,21.1787109 4.01245119,15.5 L5.5,15.5 C5.77612306,15.5 6,15.2761231 6,15 C6,14.7238769 5.77612306,14.5 5.5,14.5 L4.01245119,14.5 C4.27758788,8.82128906 8.82128906,4.27758788 14.5,4.01245119 L14.5,5.5 C14.5,5.77612306 14.7238769,6 15,6 C15.2761231,6 15.5,5.77612306 15.5,5.5 L15.5,4.01245119 C21.1787109,4.27758788 25.7224121,8.82128906 25.9875488,14.5 L24.5,14.5 C24.2238769,14.5 24,14.7238769 24,15 C24,15.2761231 24.2238769,15.5 24.5,15.5 L25.9875488,15.5 C25.7224121,21.1787109 21.1787109,25.7224121 15.5,25.9875488 L15.5,25.9875488 Z" id="Shape"></path>
                    <path d="M21.5,14.5 L16.407959,14.5 C16.1967774,13.902832 15.6333007,13.5026856 15,13.5 C14.7768555,13.5007324 14.5568847,13.5520019 14.3564453,13.6499024 L14.3535156,13.6455078 L8.85351562,8.14550781 C8.65722656,7.95605469 8.345459,7.95874025 8.15258787,8.15161131 C7.95971681,8.34448244 7.95703125,8.65625 8.14648437,8.85253906 L13.6464844,14.3525391 L13.6508789,14.3554688 C13.5527344,14.5561524 13.5009766,14.7766113 13.5,15 C13.4985351,15.7297363 14.0236816,16.3540039 14.7429199,16.4777832 C15.4621582,16.6013184 16.1655274,16.1882324 16.407959,15.5 L21.5,15.5 C21.7761231,15.5 22,15.2761231 22,15 C22,14.7238769 21.7761231,14.5 21.5,14.5 L21.5,14.5 Z M15,15.5 C14.7238769,15.5 14.5,15.2761231 14.5,15 C14.5,14.7238769 14.7238769,14.5 15,14.5 C15.2761231,14.5 15.5,14.7238769 15.5,15 C15.5,15.2761231 15.2761231,15.5 15,15.5 Z" id="Shape"></path>
                </g>
                <rect id="Rectangle-6" stroke="#000000" x="0.5" y="0.5" width="105" height="37" rx="10"></rect>
            </g>
        </g>
    </g>
</svg>