<svg width="30px" height="30px" viewBox="0 0 30 30" version="1.1" xmlns="http://www.w3.org/2000/svg" xmlns:xlink="http://www.w3.org/1999/xlink">
    <!-- Generator: Sketch 43.2 (39069) - http://www.bohemiancoding.com/sketch -->
    <title>Group</title>
    <desc>Created with Sketch.</desc>
    <defs></defs>
    <g id="Symbols" stroke="none" stroke-width="1" fill="none" fill-rule="evenodd">
        <g id="Group:-couples" transform="translate(-5.000000, -3.000000)">
            <g id="Group-2">
                <g id="Group" transform="translate(5.000000, 3.000000)" fill-rule="nonzero">
                    <g id="001-avatar" transform="translate(0.000000, 8.107692)" fill="#000000">
                        <path d="M9.02505339,11.4829463 L9.09594237,11.4829463 L9.12252574,11.4829463 L9.16683135,11.4829463 C10.4649858,11.4608807 11.5150288,11.006329 12.2903771,10.1369438 C13.9961432,8.22164835 13.7125873,4.93828476 13.6815733,4.62495302 C13.5708093,2.2727584 12.4543078,1.14741201 11.5327511,0.622250358 C10.8460141,0.229482402 10.0440825,0.0176524924 9.14910911,0 L9.11809518,0 L9.10037293,0 L9.07378956,0 C8.58199726,0 7.61613489,0.079436216 6.69014758,0.604597866 C5.7597297,1.12975952 4.62550601,2.25510591 4.51474198,4.62495302 C4.48372805,4.93828476 4.20017212,8.22164835 5.90593823,10.1369438 C6.6768559,11.006329 7.72689893,11.4608807 9.02505339,11.4829463 Z M5.69770185,4.7352811 C5.69770185,4.72204173 5.70213241,4.70880236 5.70213241,4.69997611 C5.84834093,1.53576684 8.10349664,1.19595636 9.069359,1.19595636 L9.08708125,1.19595636 L9.12252574,1.19595636 C10.3187773,1.2224351 12.3524049,1.70787864 12.4897523,4.69997611 C12.4897523,4.71321548 12.4897523,4.72645485 12.4941829,4.7352811 C12.4986135,4.76617296 12.8087527,7.76709667 11.3998343,9.34699474 C10.8415835,9.97365823 10.0972492,10.2825768 9.11809518,10.2914031 L9.09594237,10.2914031 L9.09594237,10.2914031 L9.07378956,10.2914031 C8.09906608,10.2825768 7.35030121,9.97365823 6.79648105,9.34699474 C5.39199312,7.77592292 5.69327128,4.76175983 5.69770185,4.7352811 Z" id="Shape"></path>
                        <path d="M18.2007459,16.9287402 L18.2007459,16.9155009 C18.2007459,16.8801959 18.1963153,16.8448909 18.1963153,16.8051728 C18.1697319,15.9313744 18.1121346,13.8880984 16.189271,13.2349562 C16.1759793,13.2305431 16.1582571,13.22613 16.1449654,13.2217168 C14.1467823,12.7142077 12.4853218,11.5667957 12.4675995,11.5535563 C12.1973353,11.363792 11.8251681,11.4299889 11.634654,11.6991894 C11.4441399,11.9683899 11.5105983,12.3390922 11.7808625,12.5288565 C11.8561821,12.581814 13.6195455,13.8042491 15.825965,14.3691288 C16.8582858,14.7354181 16.9734804,15.8342857 17.0044943,16.8404778 C17.0044943,16.8801959 17.0044943,16.9155009 17.0089249,16.9508059 C17.0133554,17.3479869 16.9867721,17.9614111 16.9158831,18.3144609 C16.1981322,18.7204682 13.3847257,20.1238414 9.10480349,20.1238414 C4.84260351,20.1238414 2.01147484,18.7160551 1.28929334,18.3100478 C1.21840436,17.9569979 1.18739043,17.3435738 1.19625155,16.9463927 C1.19625155,16.9110878 1.20068212,16.8757828 1.20068212,16.8360647 C1.23169604,15.8298726 1.34689064,14.7310049 2.37921142,14.3647157 C4.58563096,13.799836 6.34899436,12.5729877 6.4243139,12.5244434 C6.69457814,12.3346791 6.76103656,11.9639767 6.57052242,11.6947762 C6.38000829,11.4255757 6.00784114,11.3593789 5.7375769,11.5491432 C5.71985465,11.5623825 4.06725528,12.7097946 2.06021101,13.2173037 C2.04248876,13.2217168 2.02919708,13.22613 2.0159054,13.2305431 C0.0930417875,13.8880984 0.0354444905,15.9313744 0.00886112262,16.8007597 C0.00886112262,16.8404778 0.00886112262,16.8757828 0.00443056131,16.9110878 L0.00443056131,16.9243271 C-3.41523684e-15,17.1538095 -0.00443056131,18.3321134 0.230389188,18.9234719 C0.274694801,19.0382131 0.354444905,19.1353018 0.460778376,19.2014986 C0.593695216,19.2897611 3.7792688,21.3109715 9.10923405,21.3109715 C14.4391993,21.3109715 17.6247729,19.285348 17.7576897,19.2014986 C17.8595926,19.1353018 17.9437733,19.0382131 17.9880789,18.9234719 C18.209607,18.3365265 18.2051764,17.1582226 18.2007459,16.9287402 Z" id="Shape"></path>
                        <path d="M20.8154464,11.4829463 L20.8863354,11.4829463 L20.9129188,11.4829463 L20.9572244,11.4829463 C22.2553788,11.4608807 23.3054219,11.006329 24.0807701,10.1369438 C25.7865362,8.22164835 25.5029803,4.93828476 25.4719663,4.62495302 C25.3612023,2.2727584 24.2447009,1.14741201 23.3231441,0.622250358 C22.6364071,0.229482402 21.8344755,0.0176524924 20.9395021,0 L20.9084882,0 L20.8907659,0 L20.8641826,0 C20.3723903,0 19.4065279,0.079436216 18.4805406,0.604597866 C17.5501227,1.12975952 16.415899,2.25510591 16.305135,4.62495302 C16.2741211,4.93828476 15.9905651,8.22164835 17.6963312,10.1369438 C18.4672489,11.006329 19.5172919,11.4608807 20.8154464,11.4829463 Z M17.4880949,4.7352811 C17.4880949,4.72204173 17.4925254,4.70880236 17.4925254,4.69997611 C17.6387339,1.53576684 19.8938897,1.19595636 20.859752,1.19595636 L20.8774743,1.19595636 L20.9129188,1.19595636 C22.1091703,1.2224351 24.1427979,1.70787864 24.2801453,4.69997611 C24.2801453,4.71321548 24.2801453,4.72645485 24.2845759,4.7352811 C24.2890065,4.76617296 24.5991458,7.76709667 23.1902273,9.34699474 C22.6319765,9.97365823 21.8876422,10.2825768 20.9084882,10.2914031 L20.8863354,10.2914031 L20.8863354,10.2914031 L20.8641826,10.2914031 C19.8894591,10.2825768 19.1406942,9.97365823 18.5868741,9.34699474 C17.1823861,7.77592292 17.4836643,4.76175983 17.4880949,4.7352811 Z" id="Shape"></path>
                        <path d="M29.9911389,16.9287402 C29.9911389,16.8801959 29.9867083,16.8448909 29.9867083,16.8051728 C29.9601249,15.9313744 29.9025277,13.8880984 27.979664,13.2349562 C27.9663724,13.2305431 27.9486501,13.22613 27.9353584,13.2217168 C25.9371753,12.7142077 24.2757148,11.5667957 24.2579925,11.5535563 C23.9877283,11.363792 23.6155612,11.4299889 23.425047,11.6991894 C23.2345329,11.9683899 23.3009913,12.3390922 23.5712555,12.5288565 C23.6465751,12.581814 25.4099385,13.8042491 27.616358,14.3691288 C28.6486788,14.7354181 28.7638734,15.8342857 28.7948873,16.8404778 C28.7948873,16.8801959 28.7948873,16.9155009 28.7993179,16.9508059 C28.8037484,17.3479869 28.7771651,17.9614111 28.7062761,18.3144609 C27.9885252,18.7204682 25.1751187,20.1238414 20.8951965,20.1238414 C19.8921127,20.1238414 17.3647544,19.9162542 16.1055727,19.678242 C14.0132669,19.2827516 14.2126897,19.9541604 14.1970665,20.1238414 C14.1846138,20.2590876 14.5816269,20.727515 16.3169686,21.0358621 C18.0523103,21.3442092 19.5673489,21.3109715 20.8996271,21.3109715 C26.2295923,21.3109715 29.4151659,19.285348 29.5480827,19.2014986 C29.6499857,19.1353018 29.7341663,19.0382131 29.7784719,18.9234719 C30,18.3365265 29.9955694,17.1582226 29.9911389,16.9287402 Z" id="Shape"></path>
                        <path d="M15.5974419,13.6100756 C17.1657775,12.9541993 18.1393874,12.5729877 18.2147069,12.5244434 C18.4849712,12.3346791 18.5514296,11.9639767 18.3609154,11.6947762 C18.1704013,11.4255757 17.7982342,11.3593789 17.5279699,11.5491432 C17.5102477,11.5623825 16.5006991,12.1487352 14.8897642,12.9541993 C13.192586,13.8027849 14.5651211,13.9763649 15.5974419,13.6100756 Z" id="Shape"></path>
                    </g>
                    <g id="002-heart" transform="translate(9.956332, 0.000000)">
                        <path d="M10.0873362,3.0446392 C10.0873362,3.90129661 9.76949035,4.68583807 9.08700667,5.51281431 C8.47632696,6.25283401 7.59890293,7.00390684 6.5826426,7.87362707 C6.23539787,8.17074799 5.84190002,8.50759841 5.43362581,8.86640051 C5.32665102,8.9603909 5.18958479,9.01256484 5.0472083,9.01341509 L5.04366812,9.01341509 C4.90006027,9.01341509 4.76160875,8.96116385 4.65371044,8.86624593 C4.24620584,8.50837135 3.85332365,8.17190742 3.50669461,7.87517297 L3.50492453,7.87385896 C2.48881811,7.00406144 1.61100928,6.25283401 1.00048348,5.51281431 C0.317845897,4.68583807 2.84217094e-14,3.90129661 2.84217094e-14,3.0446392 C2.84217094e-14,2.2122523 0.284214265,1.44417463 0.800232876,0.882010103 C1.32248524,0.313120933 2.03898535,5.68434189e-14 2.81797717,5.68434189e-14 C3.40033553,5.68434189e-14 3.93343931,0.184734401 4.4029739,0.54933361 C4.63993455,0.733449633 4.85457675,0.95853187 5.04366812,1.22141122 L5.0472083,1.21669625 C5.23553007,0.955826569 5.44901786,0.732290207 5.68451628,0.54933361 C6.15389694,0.184734401 6.68723161,5.68434189e-14 7.26935907,5.68434189e-14 C8.04850483,5.68434189e-14 8.76500491,0.313120933 9.28710337,0.882010103 C9.80312198,1.44417463 10.0873362,2.21202041 10.0873362,3.0446392 L10.0873362,3.0446392 Z" id="Shape" fill="#FF5E95"></path>
                        <path d="M10.0873362,3.0446392 C10.0873362,3.90129661 9.76949035,4.68583807 9.08700667,5.51281431 C8.47632696,6.25283401 7.59890293,7.00390684 6.5826426,7.87362707 C6.23539787,8.17074799 5.84190002,8.50759841 5.43362581,8.86640051 C5.32665102,8.9603909 5.18958479,9.01256484 5.0472083,9.01341509 L5.0472083,1.21669625 C5.23553007,0.955826569 5.44901786,0.732290207 5.68451628,0.54933361 C6.15389694,0.184734401 6.68723161,2.84217094e-14 7.26935907,2.84217094e-14 C8.04850483,2.84217094e-14 8.76500491,0.313120933 9.28710337,0.882010103 C9.80312198,1.44417463 10.0873362,2.21202041 10.0873362,3.0446392 L10.0873362,3.0446392 Z" id="Shape" fill="#FF3980"></path>
                    </g>
                </g>
                <rect id="Rectangle-6" stroke="#000000" x="0.5" y="0.5" width="105" height="37" rx="10"></rect>
            </g>
        </g>
    </g>
</svg>